<?xml version="1.0" encoding="UTF-8"?>
<svg id="Layer_1" xmlns="http://www.w3.org/2000/svg" xmlns:xlink="http://www.w3.org/1999/xlink" viewBox="0 0 365.63 346.7">
  <defs>
    <style>
      .cls-1 {
        fill: #231f20;
      }

      .cls-1, .cls-2 {
        font-family: Helvetica-Bold, Helvetica;
        font-size: 72px;
        font-weight: 700;
      }

      .cls-3 {
        fill: url(#linear-gradient);
      }

      .cls-2, .cls-4 {
        fill: #fff;
      }
    </style>
    <linearGradient id="linear-gradient" x1=".37" y1="212.31" x2="365.63" y2="212.31" gradientUnits="userSpaceOnUse">
      <stop offset=".22" stop-color="#e71d31"/>
      <stop offset="1" stop-color="#f78f3b"/>
    </linearGradient>
  </defs>
  <path class="cls-3" d="M40.73,82.91h284.55c22.27,0,40.36,18.08,40.36,40.36v178.08c0,22.27-18.08,40.36-40.36,40.36H51.21c-28.06,0-50.84-22.78-50.84-50.84V123.27c0-22.27,18.08-40.36,40.36-40.36Z"/>
  <path class="cls-4" d="M314.36,0H50.22C22.48,0,0,22.48,0,50.22v127.28c0,2.83,2.3,5.13,5.13,5.13h108.46c6.21,0,9.32-7.51,4.93-11.89l-9.2-9.2c-4.46-4.46-1.3-12.1,5.01-12.1h136.4c6.39,0,9.59,7.73,5.07,12.25l-8.84,8.84c-4.46,4.46-1.3,12.1,5.01,12.1h108.17c2.83,0,5.13-2.3,5.13-5.13V50.9c0-28.11-22.79-50.9-50.9-50.9Z"/>
  <text class="cls-1" transform="translate(27.43 110.26)"><tspan x="0" y="0">easy</tspan></text>
  <text class="cls-2" transform="translate(29.08 282.9)"><tspan x="0" y="0">BOT</tspan></text>
</svg>